<?xml version="1.0" encoding="UTF-8"?>
<!DOCTYPE svg PUBLIC "-//W3C//DTD SVG 1.1//EN" "http://www.w3.org/Graphics/SVG/1.1/DTD/svg11.dtd">
<!-- Creator: CorelDRAW 2021 (64-Bit) -->
<svg xmlns="http://www.w3.org/2000/svg" xml:space="preserve" width="180mm" height="170mm" version="1.1" style="shape-rendering:geometricPrecision; text-rendering:geometricPrecision; image-rendering:optimizeQuality; fill-rule:evenodd; clip-rule:evenodd"
viewBox="0 0 18000 17000"
 xmlns:xlink="http://www.w3.org/1999/xlink"
 xmlns:xodm="http://www.corel.com/coreldraw/odm/2003">
 <defs>
  <style type="text/css">
   <![CDATA[
    .fil0 {fill:#0B6DB5}
    .fil2 {fill:#F8FBFD}
    .fil1 {fill:#FEFEFE}
   ]]>
  </style>
 </defs>
 <g id="Capa_x0020_1">
  <metadata id="CorelCorpID_0Corel-Layer"/>
  <g id="_1336694927248">
   <path class="fil0" d="M999.93 0.53l16000 0c550,0 1000,450.01 1000,1000l0 15000c0,550 -450,1000 -1000,1000l-16000 0c-550,0 -1000,-450 -1000,-1000l0 -15000c0,-549.99 450,-1000 1000,-1000z"/>
   <path class="fil1" d="M8739.14 3095.58c-1183.78,226.4 -2588.78,768.24 -3456.32,1319.17 -552.48,350.84 -362.38,1325.62 -362.38,2001.63 0,799.63 0,1599.26 0,2398.89 0,1982.06 119.35,2385.23 1252.52,3510.23 564.89,560.83 1422.27,1047.01 2183.53,1378.79 315.53,137.52 530.5,316.44 913.42,165.77 1126.71,-443.32 2230.27,-1098.21 2895.79,-1867.19 1099.02,-1269.87 936.89,-1864.36 936.89,-3822.6 0,-787.87 0,-1575.74 0,-2363.62 0,-1104.96 84.7,-1201.23 -764.22,-1627.44 -681.49,-342.15 -2682.95,-1268.87 -3599.23,-1093.63zm-563.39 7788.72l1671.22 1.25c-10.75,-413.03 -469.12,-2707.1 -425.9,-2831.73 48.4,-139.55 672.92,-356.15 521.01,-1091.86 -200,-968.66 -1590.85,-995.44 -1848.66,-63.18 -68.68,248.32 -24.48,502.02 68.13,684.84 133.27,263.11 369.48,354.91 414.49,439.82 101.87,192.18 -407.23,2428.15 -400.29,2860.86z"/>
   <path class="fil2" d="M9798.05 2168.48l-1635.87 -44.76 -9.88 -870.84c-390.46,-181.57 -2010.8,471.49 -2340.25,629.41 -1021.09,489.5 -1587.9,1133.13 -1802.59,1238.01 -451.83,-249.82 -81.1,-336.41 -881.94,-334.88 -243.29,0.46 -1039.54,52.01 -1191.29,-25.55 -128.58,-190.28 100.21,-1103.07 -151.51,-1122.91 -193.99,-15.29 -134.42,319.65 -133.71,492.17 0.88,212.8 2.27,427.28 -1.97,639.93 -311.39,29.06 -704.93,-100.57 -697.92,199.56l298.83 79.02c9.42,302.65 3.02,612.76 3.01,916.06 0,167.27 -90.37,787.69 141.87,769.89 296.1,-22.7 6.78,-1461.12 152.62,-1680.9l989.75 -26.61c22.4,195.25 -76.21,706.36 133.86,719.53 214.64,13.46 129.59,-535.77 136.39,-704.7 708.36,-62.46 661.67,-35.49 1020.35,292.5 162.59,148.67 591.42,506.26 682.31,665.56 -66.83,109.57 -336.1,400.43 -450.05,546.98 -165.01,212.22 -249.68,357.6 -403.38,570.3 -244.26,-78.41 -555.39,-475.78 -811.39,-470.31 -305.47,318.52 -715.52,1448.85 -844.99,2003.24 -474.74,2032.95 -83.18,4043.95 1065.28,5736.71 129.13,190.34 485.12,776.43 696.13,679.47 111.22,-190.6 -367.43,-626.24 -463.33,-811.39 65.17,-135.69 369.4,-437 499.41,-469.53 293.82,278.85 461.63,736.09 1339.62,1421.28 145.01,113.16 467.28,270.72 542.61,430.47l-4243.9 1.49c-10.45,-154.87 72.46,-1018.45 -212.03,-752.74 -98.48,91.98 -59.18,844.68 -24.37,979.3l1127.48 31.83c109.8,650.49 -187.95,1544.38 216.36,1477.09 159.95,-289.52 -17,-1090.29 73.93,-1475.55l627.63 -4.12 29.13 728.5c400.31,37.51 190.48,-389.24 262.58,-722.14 426.58,-42.11 2674.87,83.27 2828.41,-67.95 123.36,-180.92 -572.38,-479.16 -716.41,-572.27 -780.03,-504.26 -1542.76,-1358.03 -1975.33,-2224.84 -2257.93,-4524.47 1705.53,-9658.25 6668.04,-8504.28 2710.14,630.21 4919.04,3187.32 4538.94,6583.31 -284.08,2538.16 -2327.88,4557.75 -4725.26,5048.18 -1590.05,325.28 -1306.74,-436.14 -1306.75,1725.58 0,161.2 -45.01,675.91 44.66,767.89 256.76,263.38 201.16,-388.47 220.15,-496.93 371.4,-40.34 941.08,77.92 1248.85,-53.1 32.86,-428.96 -586.85,-113.27 -1255.99,-231.18l-4.21 -361.35c1135.79,-220.57 1430.05,-19.05 2815.92,-642.3 402.54,-181.02 772.93,-392.72 1109.26,-621.29 166.02,-112.84 873.95,-722.1 965.96,-750.02l158.69 192.19c-133.79,232.66 -842.47,735.56 -1123.54,913.85 -240.12,152.31 -399.33,243.73 -623.97,363.69 -445.28,237.77 -614.86,177.95 -556.38,453 236.13,94.89 1150.87,-489.29 1345.83,-614.31 192.1,-123.19 438.73,-305.01 595.56,-427.6 144.65,-113.07 433.49,-408.89 556.59,-462.53 96.08,85.07 426.21,458.28 453.64,565.97 78.1,306.58 -159.61,831.89 218.31,802.26 92.88,-187.33 44.17,-493.66 51.5,-727.24l338.2 -27.45c11.13,220.59 -92.62,1269.03 137.11,1254.12 278.53,-18.07 21.92,-1033.78 151.7,-1227.03 189.95,-136.36 642.98,37.4 863.58,-86.62 18.83,-364.48 -821.09,-143.51 -1583.13,-206.79l-1446 -1715.11 315.85 -366.75c140.24,65.51 782.79,804.67 954.65,991.03 311.47,337.77 408.27,208.79 1240.06,219.63 221.06,2.89 317.89,37.78 315.36,-192.33l-571.39 -61.32 -28.99 -926.71c-301.07,-26.49 -250.04,83.53 -245.86,357.1 2.85,187.07 9.02,376.75 -8.15,562.9 -482.85,34.71 -443.89,-58.68 -671.45,-305.9 -119.89,-130.24 -395.42,-373.51 -457.5,-538.1 121.37,-205.34 742.34,-1037.92 642.79,-1263.98 -229.04,-126.69 -347.88,298.55 -441.3,466.85 -79.64,143.48 -293.21,515.45 -405.37,588.2l-135.71 -105.03c24.47,-114.51 295.82,-498.11 366.23,-618.56 361.34,-618.16 655.83,-1518.75 754,-2231.94 371.96,-2702.36 -1151.16,-5283.86 -3559.78,-6430.76 -672.04,-320.01 -1362.09,-418.35 -1516,-494.22l-18.59 -686.57c874.19,38.27 2103.71,620.32 2669.04,1000.91 2255.08,1518.14 3491.68,4034 3102.53,6791.14 -30.15,213.67 -182.68,582.74 -3.67,707.81 196.4,-39.74 185.11,-230.41 217.32,-440.89 214.45,-1401.37 104.85,-2722.69 -441.86,-4007.09 -862.65,-2026.64 -2183.47,-2775.2 -2320.38,-3012.53 168.06,-321.36 247.17,-388.1 710.3,-385.38 638.13,3.74 667.64,-167.43 663.13,420.37 -1.35,175.8 -5.24,358.59 -3.79,533.43 2.3,276.7 163.57,374.99 247.73,168.26 38.77,-95.22 0.12,-909.95 23.98,-1111.55l561 -5.15c12.53,221.34 -54.39,533.75 60.35,696.79 329.39,34.04 170.17,-387.19 217.13,-698.94 299.05,-9.46 892.68,113.5 858.65,-202.09 -304.86,-175.62 -2454.01,59.07 -2952.38,-75.88l-3.28 -476.74c198.71,-45.15 1094.49,91.74 901.91,-206.64 -63.06,-97.7 -1013.45,-79.64 -1092.3,-27.12 -229.17,235.37 210.02,779.59 -434.45,1200.63 -190.15,-48.26 -958.09,-551.74 -1350.33,-703.4 -217.44,-84.07 -1595.54,-466.77 -1606.62,-475.47l-49.39 -554.45c-333.84,-27.73 -226.15,396.39 -226.11,668.6 0.03,243.44 22.12,624.74 -10.07,850.62zm-686.35 12364.65l-10.03 696.98c803.31,85.58 2096.2,-326.15 2692.55,-586.93 596.7,-260.92 1686.43,-939.8 1994.31,-1366.15l-424.07 -524.74c-251.58,108.3 -1074.9,1151.81 -2911.24,1603.11 -494.32,121.48 -859.86,99.23 -1341.52,177.73zm-5984.18 -2536.28l510.99 -468.46c-81.18,-250.89 -365.57,-622.2 -589.62,-1349.75 -345.06,-1120.54 -361.36,-2243.95 -85.73,-3371.49 188.95,-772.96 477.92,-1216.72 529.01,-1432.34l-531.51 -406.37c-236.48,226.92 -554.67,1190.41 -667.16,1589.17 -369.54,1309.84 -278.79,2628.49 108.45,3923.47 107.19,358.46 516.97,1273.82 725.57,1515.77zm1096.96 -8668.15l488.2 474.18c866.1,-621.46 1046.24,-916.53 2232.46,-1345.88 318.74,-115.36 645.85,-152.21 945.79,-253.41l6.38 -685.31c-604.97,-8.77 -1658.84,433.71 -2082.29,651.61 -413.33,212.69 -1443.34,881.3 -1590.54,1158.81z"/>
  </g>
 </g>
</svg>
